<mxfile host="app.diagrams.net" agent="Mozilla/5.0 (X11; Linux x86_64) AppleWebKit/537.36 (KHTML, like Gecko) Chrome/133.0.0.0 Safari/537.36" version="26.0.11">
  <diagram name="Page-1" id="kKHpir4O-wVjDM-xojcb">
    <mxGraphModel dx="845" dy="670" grid="1" gridSize="10" guides="1" tooltips="1" connect="1" arrows="1" fold="1" page="1" pageScale="1" pageWidth="850" pageHeight="1100" math="0" shadow="0">
      <root>
        <mxCell id="0" />
        <mxCell id="1" parent="0" />
        <mxCell id="nrVpLFsN9AzKckAbSTYe-1" value="channel" style="ellipse;whiteSpace=wrap;html=1;aspect=fixed;" vertex="1" parent="1">
          <mxGeometry x="280" y="160" width="80" height="80" as="geometry" />
        </mxCell>
        <mxCell id="nrVpLFsN9AzKckAbSTYe-2" value="animator" style="ellipse;whiteSpace=wrap;html=1;aspect=fixed;" vertex="1" parent="1">
          <mxGeometry x="640" y="160" width="80" height="80" as="geometry" />
        </mxCell>
        <mxCell id="nrVpLFsN9AzKckAbSTYe-9" style="edgeStyle=orthogonalEdgeStyle;rounded=0;orthogonalLoop=1;jettySize=auto;html=1;exitX=0;exitY=0.5;exitDx=0;exitDy=0;exitPerimeter=0;entryX=1;entryY=0.5;entryDx=0;entryDy=0;" edge="1" parent="1" source="nrVpLFsN9AzKckAbSTYe-5" target="nrVpLFsN9AzKckAbSTYe-1">
          <mxGeometry relative="1" as="geometry" />
        </mxCell>
        <mxCell id="nrVpLFsN9AzKckAbSTYe-5" value="{send log}" style="shape=note;whiteSpace=wrap;html=1;backgroundOutline=1;darkOpacity=0.05;size=11;" vertex="1" parent="1">
          <mxGeometry x="440" y="280" width="120" height="40" as="geometry" />
        </mxCell>
        <mxCell id="nrVpLFsN9AzKckAbSTYe-10" style="edgeStyle=orthogonalEdgeStyle;rounded=0;orthogonalLoop=1;jettySize=auto;html=1;exitX=0;exitY=0.5;exitDx=0;exitDy=0;exitPerimeter=0;entryX=1;entryY=0.5;entryDx=0;entryDy=0;" edge="1" parent="1" source="nrVpLFsN9AzKckAbSTYe-6" target="nrVpLFsN9AzKckAbSTYe-1">
          <mxGeometry relative="1" as="geometry" />
        </mxCell>
        <mxCell id="nrVpLFsN9AzKckAbSTYe-6" value="{send control}" style="shape=note;whiteSpace=wrap;html=1;backgroundOutline=1;darkOpacity=0.05;size=11;" vertex="1" parent="1">
          <mxGeometry x="440" y="340" width="120" height="40" as="geometry" />
        </mxCell>
        <mxCell id="nrVpLFsN9AzKckAbSTYe-7" style="edgeStyle=orthogonalEdgeStyle;rounded=0;orthogonalLoop=1;jettySize=auto;html=1;exitX=0;exitY=0.5;exitDx=0;exitDy=0;entryX=0;entryY=0;entryDx=120;entryDy=25.5;entryPerimeter=0;endArrow=none;startFill=0;" edge="1" parent="1" source="nrVpLFsN9AzKckAbSTYe-2" target="nrVpLFsN9AzKckAbSTYe-6">
          <mxGeometry relative="1" as="geometry" />
        </mxCell>
        <mxCell id="nrVpLFsN9AzKckAbSTYe-8" style="edgeStyle=orthogonalEdgeStyle;rounded=0;orthogonalLoop=1;jettySize=auto;html=1;exitX=0;exitY=0.5;exitDx=0;exitDy=0;entryX=0;entryY=0;entryDx=120;entryDy=25.5;entryPerimeter=0;endArrow=none;startFill=0;" edge="1" parent="1" source="nrVpLFsN9AzKckAbSTYe-2" target="nrVpLFsN9AzKckAbSTYe-5">
          <mxGeometry relative="1" as="geometry" />
        </mxCell>
        <mxCell id="nrVpLFsN9AzKckAbSTYe-11" value="{buffer draw}" style="shape=note;whiteSpace=wrap;html=1;backgroundOutline=1;darkOpacity=0.05;size=11;" vertex="1" parent="1">
          <mxGeometry x="440" y="400" width="120" height="40" as="geometry" />
        </mxCell>
        <mxCell id="nrVpLFsN9AzKckAbSTYe-13" value="buffer" style="shape=cylinder3;whiteSpace=wrap;html=1;boundedLbl=1;backgroundOutline=1;size=15;" vertex="1" parent="1">
          <mxGeometry x="290" y="280" width="60" height="80" as="geometry" />
        </mxCell>
        <mxCell id="nrVpLFsN9AzKckAbSTYe-14" style="edgeStyle=orthogonalEdgeStyle;rounded=0;orthogonalLoop=1;jettySize=auto;html=1;exitX=0;exitY=0.5;exitDx=0;exitDy=0;exitPerimeter=0;entryX=1;entryY=0.5;entryDx=0;entryDy=0;entryPerimeter=0;" edge="1" parent="1" source="nrVpLFsN9AzKckAbSTYe-11" target="nrVpLFsN9AzKckAbSTYe-13">
          <mxGeometry relative="1" as="geometry">
            <Array as="points">
              <mxPoint x="380" y="420" />
              <mxPoint x="380" y="320" />
            </Array>
          </mxGeometry>
        </mxCell>
        <mxCell id="nrVpLFsN9AzKckAbSTYe-15" value="" style="endArrow=none;html=1;rounded=0;entryX=0.5;entryY=1;entryDx=0;entryDy=0;exitX=0.5;exitY=0;exitDx=0;exitDy=0;exitPerimeter=0;" edge="1" parent="1" source="nrVpLFsN9AzKckAbSTYe-13" target="nrVpLFsN9AzKckAbSTYe-1">
          <mxGeometry width="50" height="50" relative="1" as="geometry">
            <mxPoint x="520" y="370" as="sourcePoint" />
            <mxPoint x="570" y="320" as="targetPoint" />
          </mxGeometry>
        </mxCell>
        <mxCell id="nrVpLFsN9AzKckAbSTYe-16" value="{send log}" style="shape=note;whiteSpace=wrap;html=1;backgroundOutline=1;darkOpacity=0.05;size=11;" vertex="1" parent="1">
          <mxGeometry x="120" y="220" width="120" height="45" as="geometry" />
        </mxCell>
        <mxCell id="nrVpLFsN9AzKckAbSTYe-17" style="edgeStyle=orthogonalEdgeStyle;rounded=0;orthogonalLoop=1;jettySize=auto;html=1;exitX=0;exitY=0.5;exitDx=0;exitDy=0;entryX=0;entryY=0;entryDx=120;entryDy=25.5;entryPerimeter=0;" edge="1" parent="1" source="nrVpLFsN9AzKckAbSTYe-1" target="nrVpLFsN9AzKckAbSTYe-16">
          <mxGeometry relative="1" as="geometry" />
        </mxCell>
        <mxCell id="nrVpLFsN9AzKckAbSTYe-18" value="{send draw}" style="shape=note;whiteSpace=wrap;html=1;backgroundOutline=1;darkOpacity=0.05;size=11;" vertex="1" parent="1">
          <mxGeometry x="120" y="280" width="120" height="40" as="geometry" />
        </mxCell>
        <mxCell id="nrVpLFsN9AzKckAbSTYe-19" style="edgeStyle=orthogonalEdgeStyle;rounded=0;orthogonalLoop=1;jettySize=auto;html=1;exitX=0;exitY=0.5;exitDx=0;exitDy=0;entryX=0;entryY=0;entryDx=120;entryDy=25.5;entryPerimeter=0;" edge="1" parent="1" source="nrVpLFsN9AzKckAbSTYe-1" target="nrVpLFsN9AzKckAbSTYe-18">
          <mxGeometry relative="1" as="geometry" />
        </mxCell>
      </root>
    </mxGraphModel>
  </diagram>
</mxfile>
